# xmcd
# 
# Track frame offsets:
#     183
#     13405
#     24970
#     38258
#     57515
#     73563
#     90045
#     99898
#     113970
#     124885
#     138728
#     152480
#     165685
#     178733
#     192585
#     209030
#     228755
#     247548
#     261210
#     271490
# 
# Disc length: 3836
# 
# Revision: 3
# Processed by: cddbd v1.5.2PL0 Copyright (c) Steve Scherf et al.
# Submitted via: fre:ac v1.1beta1pre5
# 
DISCID=0b0efa14
DTITLE=Various Artist - 20 Original Country Greats
DYEAR=1987
DGENRE=Country
TTITLE0=Glen Campbell - Southern Nights
TTITLE1=Crystal Gayle - Don't Make My Brown Eyes Blue
TTITLE2=Dr. Hook - When You're In Love With A Beautiful Woman
TTITLE3=Bobbie Gentry - Ode To Billy Joe
TTITLE4=Billie Jo Spears - Blanket On The Ground
TTITLE5=Kenny Rogers - Lucille
TTITLE6=Anne Murray - Snowbird
TTITLE7=Linda Ronstadt - I Fall To Pieces
TTITLE8=Willie Nelson - Hello Walls
TTITLE9=Jean Shepard - It Keeps Right On A Hurting
TTITLE10=Dr. Hook - Sexy Eies
TTITLE11=Crystal Gayle - Talking In Your Sleep
TTITLE12=Bobby Gentry - I'll Never Fall In Love Again
TTITLE13=Glen Campbell - Wichita Lineman
TTITLE14=Anne Murray - You Needed Me
TTITLE15=Kenny Rogers - Coward Of The County
TTITLE16=Juice Newton - Angel Of The Morning
TTITLE17=John Stewart - July, You're A Woman
TTITLE18=Willie Nelson - There'll Be No Teardrops Tonight
TTITLE19=Billy Jo Spears - Sing Me An Old Fashioned Song
EXTD=YEAR: 1987
EXTT0=
EXTT1=
EXTT2=
EXTT3=
EXTT4=
EXTT5=
EXTT6=
EXTT7=
EXTT8=
EXTT9=
EXTT10=
EXTT11=
EXTT12=
EXTT13=
EXTT14=
EXTT15=
EXTT16=
EXTT17=
EXTT18=
EXTT19=
PLAYORDER=
